<svg width="55" height="33" viewBox="0 0 55 33" fill="none" xmlns="http://www.w3.org/2000/svg">
<path fill-rule="evenodd" clip-rule="evenodd" d="M5.61294 10.7848C8.51762 10.7848 10.8725 8.51204 10.8725 5.70854C10.8725 2.90505 8.51762 0.632324 5.61294 0.632324C2.70826 0.632324 0.353424 2.90505 0.353424 5.70854C0.353424 8.51204 2.70826 10.7848 5.61294 10.7848Z" fill="#3782F7"/>
<path fill-rule="evenodd" clip-rule="evenodd" d="M9.84243 19.1277H1.66276C1.16002 19.1277 0.752411 18.7295 0.752411 18.2383C0.752411 17.7471 1.16002 17.3489 1.66276 17.3489H9.84243C10.3452 17.3489 10.7528 17.7471 10.7528 18.2383C10.7528 18.7295 10.3452 19.1277 9.84243 19.1277Z" fill="#484848"/>
<path fill-rule="evenodd" clip-rule="evenodd" d="M6.59155 28.5388H0.674312C0.360016 28.5388 0.105347 28.29 0.105347 27.9829C0.105347 27.6758 0.360016 27.427 0.674312 27.427H6.59155C6.90585 27.427 7.16052 27.6758 7.16052 27.9829C7.16052 28.29 6.90585 28.5388 6.59155 28.5388Z" fill="#484848"/>
<path fill-rule="evenodd" clip-rule="evenodd" d="M19.2115 28.5388H11.0318C10.7175 28.5388 10.4628 28.29 10.4628 27.9829C10.4628 27.6758 10.7175 27.427 11.0318 27.427H19.2115C19.5258 27.427 19.7804 27.6758 19.7804 27.9829C19.7804 28.29 19.5258 28.5388 19.2115 28.5388Z" fill="#484848"/>
<path fill-rule="evenodd" clip-rule="evenodd" d="M15.8535 32.2595H0.674373C0.360077 32.2595 0.105408 32.0107 0.105408 31.7036C0.105408 31.3965 0.360077 31.1477 0.674373 31.1477H15.8535C16.1678 31.1477 16.4224 31.3965 16.4224 31.7036C16.4224 32.0107 16.1678 32.2595 15.8535 32.2595Z" fill="#484848"/>
<path fill-rule="evenodd" clip-rule="evenodd" d="M24.2395 19.1277H16.0598C15.5571 19.1277 15.1494 18.7295 15.1494 18.2383C15.1494 17.7471 15.5571 17.3489 16.0598 17.3489H24.2395C24.7422 17.3489 25.1498 17.7471 25.1498 18.2383C25.1498 18.7295 24.7422 19.1277 24.2395 19.1277Z" fill="#484848"/>
<path fill-rule="evenodd" clip-rule="evenodd" d="M38.6365 19.1277H30.4569C29.9541 19.1277 29.5465 18.7295 29.5465 18.2383C29.5465 17.7471 29.9541 17.3489 30.4569 17.3489H38.6365C39.1393 17.3489 39.5469 17.7471 39.5469 18.2383C39.5469 18.7295 39.1393 19.1277 38.6365 19.1277Z" fill="#484848"/>
<path fill-rule="evenodd" clip-rule="evenodd" d="M53.2174 19.1277H44.6699C44.1672 19.1277 43.7596 18.7295 43.7596 18.2383C43.7596 17.7471 44.1672 17.3489 44.6699 17.3489H53.2174C53.7201 17.3489 54.1277 17.7471 54.1277 18.2383C54.1277 18.7295 53.7201 19.1277 53.2174 19.1277Z" fill="#484848"/>
</svg>
