<svg width="66" height="47" viewBox="0 0 66 47" fill="none" xmlns="http://www.w3.org/2000/svg">
<g clip-path="url(#clip0_1_629)">
<path fill-rule="evenodd" clip-rule="evenodd" d="M0.910339 4.56598C0.910339 2.90786 2.28769 1.56348 3.98457 1.56348H61.941C63.6388 1.56348 65.0152 2.90341 65.0152 4.56598V41.7467C65.0152 43.4049 63.6379 44.7493 61.941 44.7493H3.98457C2.28678 44.7493 0.910339 43.4093 0.910339 41.7467V4.56598Z" fill="white"/>
<mask id="mask0_1_629" style="mask-type:luminance" maskUnits="userSpaceOnUse" x="0" y="0" width="66" height="46">
<path d="M65.9255 45.6387H0V0.674316H65.9255V45.6387Z" fill="#484848"/>
</mask>
<g mask="url(#mask0_1_629)">
<path fill-rule="evenodd" clip-rule="evenodd" d="M3.98455 2.45318C2.79154 2.45318 1.82066 3.4011 1.82066 4.56603V41.7468C1.82066 42.912 2.79154 43.8599 3.98455 43.8599H61.941C63.134 43.8599 64.1049 42.912 64.1049 41.7468V4.56603C64.1049 3.4011 63.134 2.45318 61.941 2.45318H3.98455ZM3.98455 45.6387C1.78743 45.6387 -3.05176e-05 43.8928 -3.05176e-05 41.7468V4.56603C-3.05176e-05 2.42027 1.78743 0.674316 3.98455 0.674316H61.941C64.1383 0.674316 65.9256 2.42027 65.9256 4.56603V41.7468C65.9256 43.8928 64.1383 45.6387 61.941 45.6387H3.98455Z" fill="#484848"/>
</g>
<path fill-rule="evenodd" clip-rule="evenodd" d="M17.2895 16.1911C19.8526 16.1911 21.9302 14.1859 21.9302 11.7121C21.9302 9.23838 19.8526 7.23315 17.2895 7.23315C14.7264 7.23315 12.6488 9.23838 12.6488 11.7121C12.6488 14.1859 14.7264 16.1911 17.2895 16.1911Z" fill="white"/>
<path fill-rule="evenodd" clip-rule="evenodd" d="M17.2895 8.12262C15.2325 8.12262 13.5591 9.73271 13.5591 11.7121C13.5591 13.6914 15.2325 15.3017 17.2895 15.3017C19.3464 15.3017 21.0201 13.6914 21.0201 11.7121C21.0201 9.73271 19.3464 8.12262 17.2895 8.12262ZM17.2895 17.0805C14.2287 17.0805 11.7384 14.6722 11.7384 11.7121C11.7384 8.75189 14.2287 6.34375 17.2895 6.34375C20.3503 6.34375 22.8407 8.75189 22.8407 11.7121C22.8407 14.6722 20.3503 17.0805 17.2895 17.0805Z" fill="#484848"/>
<path fill-rule="evenodd" clip-rule="evenodd" d="M48 33.2969C48 32.3045 48.8268 31.5 49.848 31.5H58.3194C59.3399 31.5 60.1672 32.3049 60.1672 33.2969V38.4262C60.1672 39.4186 59.3406 40.2231 58.3194 40.2231H49.848C48.8273 40.2231 48 39.4182 48 38.4262V33.2969Z" fill="#3782F7"/>
<path fill-rule="evenodd" clip-rule="evenodd" d="M10.6129 16.7848C13.5176 16.7848 15.8725 14.512 15.8725 11.7085C15.8725 8.90505 13.5176 6.63232 10.6129 6.63232C7.70826 6.63232 5.35342 8.90505 5.35342 11.7085C5.35342 14.512 7.70826 16.7848 10.6129 16.7848Z" fill="#3782F7"/>
<path fill-rule="evenodd" clip-rule="evenodd" d="M14.8424 25.1277H6.66276C6.16002 25.1277 5.75241 24.7295 5.75241 24.2383C5.75241 23.7471 6.16002 23.3489 6.66276 23.3489H14.8424C15.3452 23.3489 15.7528 23.7471 15.7528 24.2383C15.7528 24.7295 15.3452 25.1277 14.8424 25.1277Z" fill="#484848"/>
<path fill-rule="evenodd" clip-rule="evenodd" d="M11.5916 34.5388H5.67431C5.36002 34.5388 5.10535 34.29 5.10535 33.9829C5.10535 33.6758 5.36002 33.427 5.67431 33.427H11.5916C11.9059 33.427 12.1605 33.6758 12.1605 33.9829C12.1605 34.29 11.9059 34.5388 11.5916 34.5388Z" fill="#484848"/>
<path fill-rule="evenodd" clip-rule="evenodd" d="M24.2115 34.5388H16.0318C15.7175 34.5388 15.4628 34.29 15.4628 33.9829C15.4628 33.6758 15.7175 33.427 16.0318 33.427H24.2115C24.5258 33.427 24.7804 33.6758 24.7804 33.9829C24.7804 34.29 24.5258 34.5388 24.2115 34.5388Z" fill="#484848"/>
<path fill-rule="evenodd" clip-rule="evenodd" d="M20.8535 38.2595H5.67437C5.36008 38.2595 5.10541 38.0107 5.10541 37.7036C5.10541 37.3965 5.36008 37.1477 5.67437 37.1477H20.8535C21.1678 37.1477 21.4224 37.3965 21.4224 37.7036C21.4224 38.0107 21.1678 38.2595 20.8535 38.2595Z" fill="#484848"/>
<path fill-rule="evenodd" clip-rule="evenodd" d="M29.2395 25.1277H21.0598C20.5571 25.1277 20.1494 24.7295 20.1494 24.2383C20.1494 23.7471 20.5571 23.3489 21.0598 23.3489H29.2395C29.7422 23.3489 30.1498 23.7471 30.1498 24.2383C30.1498 24.7295 29.7422 25.1277 29.2395 25.1277Z" fill="#484848"/>
<path fill-rule="evenodd" clip-rule="evenodd" d="M43.6365 25.1277H35.4569C34.9541 25.1277 34.5465 24.7295 34.5465 24.2383C34.5465 23.7471 34.9541 23.3489 35.4569 23.3489H43.6365C44.1393 23.3489 44.5469 23.7471 44.5469 24.2383C44.5469 24.7295 44.1393 25.1277 43.6365 25.1277Z" fill="#484848"/>
<path fill-rule="evenodd" clip-rule="evenodd" d="M58.2174 25.1277H49.6699C49.1672 25.1277 48.7596 24.7295 48.7596 24.2383C48.7596 23.7471 49.1672 23.3489 49.6699 23.3489H58.2174C58.7201 23.3489 59.1277 23.7471 59.1277 24.2383C59.1277 24.7295 58.7201 25.1277 58.2174 25.1277Z" fill="#484848"/>
</g>
<defs>
<clipPath id="clip0_1_629">
<rect width="66" height="46" fill="white" transform="translate(0 0.5)"/>
</clipPath>
</defs>
</svg>
